<svg width="152" height="113" viewBox="0 0 152 113" fill="none" xmlns="http://www.w3.org/2000/svg">
<path d="M66 21.16L50.7 64H45.3L30 21.16H35.64L45.3 48.64C45.74 49.8 46.12 50.92 46.44 52C46.76 53.08 47.04 54.12 47.28 55.12C47.56 56.08 47.8 57.04 48 58C48.2 57.04 48.42 56.06 48.66 55.06C48.94 54.06 49.24 53.02 49.56 51.94C49.92 50.86 50.3 49.72 50.7 48.52L60.3 21.16H66ZM83.8566 64H68.3766V60.88L73.4166 59.74V25.48L68.3766 24.28V21.16H83.8566V24.28L78.8166 25.48V59.74L83.8566 60.88V64ZM103.469 21.16C109.069 21.16 113.149 22.26 115.709 24.46C118.269 26.66 119.549 29.76 119.549 33.76C119.549 35.52 119.249 37.22 118.649 38.86C118.089 40.46 117.149 41.9 115.829 43.18C114.509 44.46 112.749 45.48 110.549 46.24C108.349 46.96 105.649 47.32 102.449 47.32H97.5286V64H92.1286V21.16H103.469ZM102.989 25.78H97.5286V42.7H101.849C104.569 42.7 106.829 42.42 108.629 41.86C110.429 41.26 111.769 40.32 112.649 39.04C113.529 37.76 113.969 36.08 113.969 34C113.969 31.24 113.089 29.18 111.329 27.82C109.569 26.46 106.789 25.78 102.989 25.78Z" fill="black"/>
<path d="M149 38L75.5 109.5L3 38L27.5 2.5H123.5L149 38Z" stroke="black" stroke-width="4"/>
</svg>
